<mxfile host="app.diagrams.net" modified="2023-08-30T01:39:20.165Z" agent="Mozilla/5.0 (Macintosh; Intel Mac OS X 10_15_7) AppleWebKit/537.36 (KHTML, like Gecko) Chrome/116.0.0.0 Safari/537.36" version="21.6.9" etag="nHAVawBWm-z7g8vSg5Ni" type="github">
  <diagram name="Page-1" id="kfDqxAz8-ZgwtuMhNj7g">
    <mxGraphModel>
      <root>
        <mxCell id="0" />
        <mxCell id="1" parent="0" />
      </root>
    </mxGraphModel>
  </diagram>
</mxfile>
